<?xml version="1.0" encoding="UTF-8" standalone="no"?><!DOCTYPE svg PUBLIC "-//W3C//DTD SVG 1.1//EN" "http://www.w3.org/Graphics/SVG/1.1/DTD/svg11.dtd"><svg width="100%" height="100%" viewBox="0 0 136 137" version="1.1" xmlns="http://www.w3.org/2000/svg" xmlns:xlink="http://www.w3.org/1999/xlink" xml:space="preserve" xmlns:serif="http://www.serif.com/" style="fill-rule:evenodd;clip-rule:evenodd;stroke-miterlimit:10;"><path d="M12.705,68.397c0,29.514 23.962,53.476 53.476,53.476c29.515,0 53.476,-23.962 53.476,-53.476c0,-29.514 -23.961,-53.476 -53.476,-53.476c-29.514,0 -53.476,23.962 -53.476,53.476Z" style="fill:url(#_Linear1);"/><g opacity="0.9"><path d="M85.202,118.377c27.584,-10.498 41.456,-41.416 30.958,-69c-10.498,-27.584 -41.415,-41.456 -68.999,-30.959c-27.585,10.498 -41.457,41.416 -30.959,69c10.498,27.584 41.416,41.456 69,30.959Z" style="fill:url(#_Linear2);"/></g><g opacity="0.9"><clipPath id="_clip3"><path d="M14.843,119.735l102.676,0l0,-102.676l-102.676,0l0,102.676Z" clip-rule="nonzero"/></clipPath><g clip-path="url(#_clip3)"><path d="M116.294,59.887c-4.697,-27.658 -30.966,-46.299 -58.623,-41.602c-27.658,4.697 -46.3,30.965 -41.603,58.623c4.698,27.658 30.966,46.299 58.624,41.602c27.657,-4.697 46.299,-30.965 41.602,-58.623Z" style="fill:none;stroke:url(#_Linear4);stroke-width:0.24px;"/></g></g><g opacity="0.9"><clipPath id="_clip5"><path d="M25.735,108.843l80.892,0l0,-80.892l-80.892,0l0,80.892Z" clip-rule="nonzero"/></clipPath><g clip-path="url(#_clip5)"><path d="M105.557,61.71c-3.69,-21.732 -24.331,-36.379 -46.063,-32.689c-21.732,3.691 -36.38,24.331 -32.689,46.064c3.691,21.732 24.331,36.379 46.063,32.689c21.732,-3.691 36.38,-24.331 32.689,-46.064Z" style="fill:none;stroke:url(#_Linear6);stroke-width:0.24px;"/></g></g><path d="M61.778,31.339c-20.466,2.432 -35.086,20.994 -32.654,41.461c2.431,20.466 20.992,35.086 41.459,32.654c20.466,-2.431 35.087,-20.993 32.656,-41.459c-2.255,-18.972 -18.368,-32.921 -37.012,-32.92c-1.468,0 -2.955,0.087 -4.449,0.264Z" style="fill:url(#_Linear7);fill-rule:nonzero;"/><g opacity="0.7"><g><g><clipPath id="_clip8"><path d="M96.169,90.608c-12.267,16.562 -35.637,20.044 -52.199,7.778c-16.562,-12.267 -20.045,-35.638 -7.778,-52.2c12.267,-16.562 35.638,-20.044 52.2,-7.777c16.562,12.266 20.044,35.637 7.777,52.199Z" clip-rule="nonzero"/></clipPath><g clip-path="url(#_clip8)"><g opacity="0.9"><clipPath id="_clip9"><rect x="0.715" y="0.735" width="74.834" height="79.349" clip-rule="nonzero"/></clipPath><g clip-path="url(#_clip9)"><path d="M0.904,79.76l6.098,-3.554l3.187,-6.299l6.1,-3.557l3.188,-6.299l6.094,-3.551l3.188,-6.299l6.096,-3.552l3.187,-6.299l6.1,-3.557l3.189,-6.3l6.1,-3.557l3.191,-6.302l6.099,-3.556l3.192,-6.304l6.106,-3.563l3.195,-6.307" style="fill:none;fill-rule:nonzero;stroke:#fff;stroke-width:0.18px;"/></g></g><g opacity="0.9"><clipPath id="_clip10"><rect x="4.001" y="3.831" width="74.833" height="79.349" clip-rule="nonzero"/></clipPath><g clip-path="url(#_clip10)"><path d="M4.19,82.857l6.098,-3.554l3.187,-6.299l6.1,-3.557l3.188,-6.299l6.094,-3.551l3.188,-6.299l6.096,-3.552l3.187,-6.299l6.1,-3.557l3.189,-6.3l6.1,-3.557l3.191,-6.302l6.099,-3.556l3.192,-6.304l6.106,-3.563l3.195,-6.307" style="fill:none;fill-rule:nonzero;stroke:#fff;stroke-width:0.18px;"/></g></g><g opacity="0.9"><clipPath id="_clip11"><rect x="7.287" y="6.927" width="74.833" height="79.35" clip-rule="nonzero"/></clipPath><g clip-path="url(#_clip11)"><path d="M7.476,85.953l6.098,-3.554l3.187,-6.299l6.1,-3.557l3.188,-6.299l6.094,-3.551l3.188,-6.299l6.096,-3.552l3.187,-6.299l6.1,-3.557l3.189,-6.3l6.1,-3.557l3.191,-6.302l6.099,-3.556l3.192,-6.303l6.106,-3.564l3.195,-6.307" style="fill:none;fill-rule:nonzero;stroke:#fff;stroke-width:0.18px;"/></g></g><g opacity="0.9"><clipPath id="_clip12"><rect x="10.572" y="10.024" width="74.834" height="79.349" clip-rule="nonzero"/></clipPath><g clip-path="url(#_clip12)"><path d="M10.761,89.049l6.098,-3.554l3.187,-6.299l6.1,-3.557l3.188,-6.299l6.094,-3.551l3.188,-6.299l6.096,-3.552l3.187,-6.299l6.1,-3.557l3.189,-6.3l6.1,-3.557l3.191,-6.302l6.099,-3.556l3.192,-6.304l6.106,-3.563l3.195,-6.307" style="fill:none;fill-rule:nonzero;stroke:#fff;stroke-width:0.18px;"/></g></g><g opacity="0.9"><clipPath id="_clip13"><rect x="13.858" y="13.12" width="74.833" height="79.349" clip-rule="nonzero"/></clipPath><g clip-path="url(#_clip13)"><path d="M14.047,92.145l6.098,-3.554l3.187,-6.299l6.1,-3.557l3.188,-6.299l6.094,-3.551l3.188,-6.299l6.096,-3.552l3.187,-6.299l6.1,-3.557l3.189,-6.3l6.1,-3.557l3.191,-6.302l6.099,-3.556l3.192,-6.304l6.106,-3.563l3.195,-6.307" style="fill:none;fill-rule:nonzero;stroke:#fff;stroke-width:0.18px;"/></g></g><g opacity="0.9"><clipPath id="_clip14"><rect x="17.144" y="16.216" width="74.833" height="79.349" clip-rule="nonzero"/></clipPath><g clip-path="url(#_clip14)"><path d="M17.333,95.242l6.098,-3.554l3.187,-6.299l6.1,-3.557l3.188,-6.299l6.094,-3.551l3.188,-6.299l6.096,-3.552l3.187,-6.299l6.1,-3.557l3.189,-6.3l6.1,-3.557l3.191,-6.302l6.099,-3.556l3.192,-6.304l6.106,-3.563l3.195,-6.307" style="fill:none;fill-rule:nonzero;stroke:#fff;stroke-width:0.18px;"/></g></g><g opacity="0.9"><clipPath id="_clip15"><rect x="20.429" y="19.312" width="74.834" height="79.35" clip-rule="nonzero"/></clipPath><g clip-path="url(#_clip15)"><path d="M20.618,98.338l6.098,-3.554l3.187,-6.299l6.1,-3.557l3.188,-6.299l6.094,-3.551l3.188,-6.299l6.096,-3.552l3.187,-6.299l6.1,-3.557l3.189,-6.3l6.1,-3.557l3.191,-6.302l6.099,-3.556l3.192,-6.304l6.106,-3.563l3.195,-6.307" style="fill:none;fill-rule:nonzero;stroke:#fff;stroke-width:0.18px;"/></g></g><g opacity="0.9"><clipPath id="_clip16"><rect x="23.715" y="22.409" width="74.833" height="79.349" clip-rule="nonzero"/></clipPath><g clip-path="url(#_clip16)"><path d="M23.904,101.434l6.098,-3.554l3.187,-6.299l6.1,-3.557l3.188,-6.299l6.094,-3.551l3.188,-6.299l6.096,-3.552l3.187,-6.299l6.1,-3.557l3.189,-6.3l6.1,-3.557l3.191,-6.302l6.099,-3.556l3.192,-6.304l6.106,-3.563l3.195,-6.307" style="fill:none;fill-rule:nonzero;stroke:#fff;stroke-width:0.18px;"/></g></g><g opacity="0.9"><clipPath id="_clip17"><rect x="27.001" y="25.505" width="74.833" height="79.349" clip-rule="nonzero"/></clipPath><g clip-path="url(#_clip17)"><path d="M27.19,104.53l6.098,-3.554l3.187,-6.299l6.1,-3.557l3.188,-6.299l6.094,-3.551l3.188,-6.299l6.096,-3.552l3.187,-6.299l6.1,-3.557l3.189,-6.3l6.1,-3.557l3.191,-6.302l6.099,-3.556l3.192,-6.304l6.106,-3.563l3.195,-6.307" style="fill:none;fill-rule:nonzero;stroke:#fff;stroke-width:0.18px;"/></g></g><g opacity="0.9"><clipPath id="_clip18"><rect x="30.286" y="28.601" width="74.834" height="79.349" clip-rule="nonzero"/></clipPath><g clip-path="url(#_clip18)"><path d="M30.475,107.627l6.098,-3.554l3.187,-6.299l6.1,-3.557l3.188,-6.299l6.094,-3.551l3.188,-6.299l6.096,-3.552l3.187,-6.299l6.1,-3.557l3.189,-6.3l6.1,-3.558l3.191,-6.301l6.099,-3.556l3.192,-6.304l6.106,-3.563l3.195,-6.307" style="fill:none;fill-rule:nonzero;stroke:#fff;stroke-width:0.18px;"/></g></g><g opacity="0.9"><clipPath id="_clip19"><rect x="33.572" y="31.697" width="74.833" height="79.35" clip-rule="nonzero"/></clipPath><g clip-path="url(#_clip19)"><path d="M33.761,110.723l6.098,-3.554l3.187,-6.299l6.1,-3.557l3.188,-6.299l6.094,-3.551l3.188,-6.299l6.096,-3.552l3.187,-6.299l6.1,-3.557l3.189,-6.3l6.1,-3.557l3.191,-6.302l6.099,-3.556l3.192,-6.304l6.106,-3.563l3.195,-6.307" style="fill:none;fill-rule:nonzero;stroke:#fff;stroke-width:0.18px;"/></g></g><g opacity="0.9"><clipPath id="_clip20"><rect x="36.858" y="34.794" width="74.833" height="79.349" clip-rule="nonzero"/></clipPath><g clip-path="url(#_clip20)"><path d="M37.047,113.819l6.098,-3.554l3.187,-6.299l6.1,-3.557l3.188,-6.299l6.094,-3.551l3.188,-6.299l6.096,-3.552l3.187,-6.299l6.1,-3.557l3.189,-6.3l6.1,-3.557l3.191,-6.302l6.099,-3.556l3.192,-6.304l6.106,-3.563l3.195,-6.307" style="fill:none;fill-rule:nonzero;stroke:#fff;stroke-width:0.18px;"/></g></g><g opacity="0.9"><clipPath id="_clip21"><rect x="40.143" y="37.89" width="74.834" height="79.349" clip-rule="nonzero"/></clipPath><g clip-path="url(#_clip21)"><path d="M40.332,116.915l6.098,-3.554l3.187,-6.299l6.1,-3.557l3.188,-6.299l6.094,-3.551l3.188,-6.299l6.096,-3.552l3.187,-6.299l6.1,-3.557l3.189,-6.3l6.1,-3.557l3.191,-6.302l6.099,-3.556l3.192,-6.304l6.106,-3.563l3.195,-6.307" style="fill:none;fill-rule:nonzero;stroke:#fff;stroke-width:0.18px;"/></g></g><g opacity="0.9"><clipPath id="_clip22"><rect x="43.429" y="40.986" width="74.833" height="79.349" clip-rule="nonzero"/></clipPath><g clip-path="url(#_clip22)"><path d="M43.618,120.012l6.098,-3.554l3.187,-6.299l6.1,-3.557l3.188,-6.299l6.094,-3.551l3.188,-6.299l6.096,-3.552l3.187,-6.299l6.1,-3.557l3.189,-6.3l6.1,-3.557l3.191,-6.302l6.099,-3.556l3.192,-6.304l6.106,-3.563l3.195,-6.307" style="fill:none;fill-rule:nonzero;stroke:#fff;stroke-width:0.18px;"/></g></g><g opacity="0.9"><clipPath id="_clip23"><rect x="46.715" y="44.082" width="74.833" height="79.35" clip-rule="nonzero"/></clipPath><g clip-path="url(#_clip23)"><path d="M46.904,123.108l6.098,-3.554l3.187,-6.299l6.1,-3.557l3.188,-6.299l6.094,-3.551l3.188,-6.299l6.096,-3.552l3.187,-6.299l6.1,-3.557l3.189,-6.3l6.1,-3.557l3.191,-6.302l6.099,-3.556l3.192,-6.304l6.106,-3.563l3.195,-6.307" style="fill:none;fill-rule:nonzero;stroke:#fff;stroke-width:0.18px;"/></g></g><g opacity="0.9"><clipPath id="_clip24"><rect x="50" y="47.179" width="74.834" height="79.349" clip-rule="nonzero"/></clipPath><g clip-path="url(#_clip24)"><path d="M50.189,126.204l6.098,-3.554l3.187,-6.299l6.1,-3.557l3.188,-6.299l6.094,-3.551l3.188,-6.299l6.096,-3.552l3.187,-6.299l6.1,-3.557l3.189,-6.3l6.1,-3.557l3.191,-6.302l6.099,-3.556l3.192,-6.304l6.106,-3.563l3.195,-6.307" style="fill:none;fill-rule:nonzero;stroke:#fff;stroke-width:0.18px;"/></g></g><g opacity="0.9"><clipPath id="_clip25"><rect x="53.286" y="50.275" width="74.833" height="79.349" clip-rule="nonzero"/></clipPath><g clip-path="url(#_clip25)"><path d="M53.475,129.3l6.098,-3.554l3.187,-6.299l6.1,-3.557l3.188,-6.299l6.094,-3.551l3.188,-6.299l6.096,-3.552l3.187,-6.299l6.1,-3.557l3.189,-6.3l6.1,-3.557l3.191,-6.302l6.099,-3.556l3.192,-6.303l6.106,-3.564l3.195,-6.307" style="fill:none;fill-rule:nonzero;stroke:#fff;stroke-width:0.18px;"/></g></g><g opacity="0.9"><clipPath id="_clip26"><rect x="56.572" y="53.371" width="74.833" height="79.349" clip-rule="nonzero"/></clipPath><g clip-path="url(#_clip26)"><path d="M56.761,132.397l6.098,-3.554l3.187,-6.299l6.1,-3.557l3.188,-6.299l6.094,-3.551l3.188,-6.299l6.096,-3.552l3.187,-6.299l6.1,-3.557l3.189,-6.3l6.1,-3.557l3.191,-6.302l6.099,-3.556l3.192,-6.304l6.106,-3.563l3.195,-6.307" style="fill:none;fill-rule:nonzero;stroke:#fff;stroke-width:0.18px;"/></g></g><g opacity="0.9"><clipPath id="_clip27"><rect x="59.857" y="56.467" width="74.834" height="79.35" clip-rule="nonzero"/></clipPath><g clip-path="url(#_clip27)"><path d="M60.046,135.493l6.098,-3.554l3.187,-6.299l6.1,-3.557l3.188,-6.299l6.094,-3.551l3.188,-6.299l6.096,-3.552l3.187,-6.299l6.1,-3.557l3.189,-6.3l6.1,-3.557l3.191,-6.302l6.099,-3.556l3.192,-6.304l6.106,-3.563l3.195,-6.307" style="fill:none;fill-rule:nonzero;stroke:#fff;stroke-width:0.18px;"/></g></g></g></g></g></g><path d="M30.035,69.855c-0,-20.906 16.948,-37.854 37.854,-37.854c7.38,0 14.261,2.119 20.083,5.771c-6.148,-4.387 -13.662,-6.979 -21.79,-6.979c-20.769,0 -37.605,16.836 -37.605,37.604c-0,10.345 4.182,19.708 10.942,26.506c-5.898,-6.675 -9.484,-15.44 -9.484,-25.048" style="fill:#666;fill-rule:nonzero;"/><g opacity="0.95"><path d="M78.558,81.445c-0.276,0.82 -0.727,1.538 -1.353,2.153c-0.625,0.614 -1.455,1.038 -2.49,1.408c-1.036,0.369 -2.323,0.485 -3.86,0.485l-8.638,0l0,-12.999l8.607,0c1.454,0 2.695,0.192 3.721,0.479c1.025,0.287 1.865,0.726 2.522,1.269c0.656,0.544 1.138,1.212 1.445,1.98c0.308,0.769 0.462,1.642 0.463,2.605c-0.001,0.923 -0.14,1.8 -0.417,2.62m-0.907,-21.004c0,2.235 -0.727,3.891 -2.183,4.916c-1.456,1.025 -3.588,1.564 -6.397,1.564l-6.854,0l0,-12.999l7.315,0c2.788,0 4.839,0.538 6.151,1.522c1.312,0.984 1.968,2.68 1.968,4.997m0.338,8.672c1.374,-0.472 2.558,-1.046 3.552,-1.722c0.993,-0.676 1.814,-1.43 2.461,-2.261c0.645,-0.83 1.122,-1.722 1.43,-2.675c0.307,-0.954 0.46,-1.953 0.46,-2.999c0.001,-1.825 -0.307,-3.465 -0.923,-4.92c-0.614,-1.456 -1.583,-2.696 -2.906,-3.721c-1.322,-1.026 -3.089,-1.815 -5.149,-2.368c-1.217,-0.327 -2.317,-0.554 -4.174,-0.688l0,-6.836l-3.714,0l0,6.809l-6.19,0l0,-6.809l-4.334,0l0,6.809l-9.284,0l0,3.5c0,1.062 0.667,1.704 1.693,1.923c0.09,0.016 0.296,0.039 0.463,0.07c0.168,0.03 0.504,0.085 0.947,0.165c0.444,0.079 1.229,0.187 1.849,0.323l0,32.276c-0.62,0.135 -1.366,0.243 -1.81,0.323c-0.444,0.079 -0.745,0.134 -0.912,0.165c-0.167,0.031 -0.449,0.054 -0.539,0.07c-1.027,0.219 -1.691,0.861 -1.691,1.923l0,3.831l9.284,0l0,5.571l4.334,0l0,-5.571l6.19,0l0,5.571l3.714,0l0,-5.851c1.857,-0.124 3.552,-0.43 5.05,-0.919c2.009,-0.656 3.738,-1.563 5.112,-2.722c1.374,-1.158 2.438,-2.537 3.156,-4.136c0.717,-1.6 1.086,-3.342 1.086,-5.229c0,-5.227 -3.046,-8.528 -9.155,-9.902" style="fill-rule:nonzero;"/></g><path d="M67.025,39.923l0,6.809l-6.189,0l0,-6.809l-4.333,0l0,6.809l-9.286,0l0,3.499c0,1.063 0.668,1.705 1.694,1.924c0.09,0.016 0.295,0.039 0.464,0.07c0.167,0.029 0.503,0.084 0.946,0.165c0.444,0.08 1.23,0.187 1.849,0.323l0,32.276c-0.619,0.135 -1.366,0.243 -1.81,0.322c-0.444,0.08 -0.745,0.135 -0.912,0.166c-0.167,0.031 -0.449,0.053 -0.539,0.07c-1.027,0.219 -1.692,0.861 -1.692,1.924l0,3.829l9.286,0l0,5.571l4.333,0l0,-5.571l6.189,0l0,5.571l3.715,0l0,-5.85c1.857,-0.124 3.552,-0.43 5.051,-0.92c2.008,-0.655 3.737,-1.562 5.112,-2.721c1.373,-1.159 2.438,-2.537 3.155,-4.136c0.717,-1.6 1.086,-3.342 1.086,-5.229c0,-5.227 -3.045,-8.528 -9.155,-9.902c1.374,-0.472 2.558,-1.046 3.552,-1.722c0.993,-0.676 1.814,-1.429 2.46,-2.261c0.647,-0.83 1.124,-1.722 1.431,-2.676c0.307,-0.953 0.46,-1.952 0.46,-2.998c0.001,-1.825 -0.308,-3.465 -0.922,-4.92c-0.615,-1.456 -1.584,-2.695 -2.906,-3.721c-1.322,-1.026 -3.089,-1.815 -5.15,-2.368c-1.217,-0.327 -2.317,-0.555 -4.174,-0.689l0,-6.835l-3.715,0Zm-6.808,12.999l7.315,0c2.788,0 4.838,0.538 6.151,1.522c1.313,0.984 1.968,2.679 1.968,4.997c0,2.235 -0.727,3.891 -2.183,4.916c-1.457,1.025 -3.589,1.564 -6.397,1.564l-6.854,0l0,-12.999Zm0,18.57l8.608,0c1.454,0 2.694,0.192 3.72,0.479c1.025,0.287 1.865,0.726 2.522,1.269c0.656,0.544 1.138,1.212 1.445,1.981c0.308,0.768 0.462,1.64 0.463,2.604c-0.001,0.923 -0.14,1.8 -0.417,2.62c-0.276,0.82 -0.727,1.537 -1.353,2.152c-0.625,0.616 -1.455,1.039 -2.491,1.409c-1.036,0.368 -2.322,0.486 -3.859,0.486l-8.638,0l0,-13Z" style="fill:url(#_Linear28);fill-rule:nonzero;"/><defs><linearGradient id="_Linear1" x1="0" y1="0" x2="1" y2="0" gradientUnits="userSpaceOnUse" gradientTransform="matrix(75.6261,75.6261,-75.6261,75.6261,28.3682,30.5844)"><stop offset="0" style="stop-color:#ffe74a;stop-opacity:1"/><stop offset="0.03" style="stop-color:#ffe74a;stop-opacity:1"/><stop offset="1" style="stop-color:#e09d03;stop-opacity:1"/></linearGradient><linearGradient id="_Linear2" x1="0" y1="0" x2="1" y2="0" gradientUnits="userSpaceOnUse" gradientTransform="matrix(-82.9382,-67.5552,67.5552,-82.9382,107.65,102.175)"><stop offset="0" style="stop-color:#ffc745;stop-opacity:1"/><stop offset="0.18" style="stop-color:#ffe180;stop-opacity:1"/><stop offset="0.36" style="stop-color:#ffc745;stop-opacity:1"/><stop offset="0.48" style="stop-color:#fcc81f;stop-opacity:1"/><stop offset="0.63" style="stop-color:#ffd68a;stop-opacity:1"/><stop offset="0.72" style="stop-color:#ffecb1;stop-opacity:1"/><stop offset="0.74" style="stop-color:#fbe29a;stop-opacity:1"/><stop offset="1" style="stop-color:#ffc745;stop-opacity:1"/></linearGradient><linearGradient id="_Linear4" x1="0" y1="0" x2="1" y2="0" gradientUnits="userSpaceOnUse" gradientTransform="matrix(-79.0702,65.501,-65.501,-79.0702,105.716,35.6473)"><stop offset="0" style="stop-color:#d38d00;stop-opacity:1"/><stop offset="0.18" style="stop-color:#ffe180;stop-opacity:1"/><stop offset="0.36" style="stop-color:#c27900;stop-opacity:1"/><stop offset="0.48" style="stop-color:#fcc81f;stop-opacity:1"/><stop offset="0.63" style="stop-color:#ffd68a;stop-opacity:1"/><stop offset="0.72" style="stop-color:#ffecb1;stop-opacity:1"/><stop offset="0.74" style="stop-color:#fbe29a;stop-opacity:1"/><stop offset="1" style="stop-color:#e09d03;stop-opacity:1"/></linearGradient><linearGradient id="_Linear6" x1="0" y1="0" x2="1" y2="0" gradientUnits="userSpaceOnUse" gradientTransform="matrix(-62.2947,51.6043,-51.6043,-62.2947,97.3284,42.5953)"><stop offset="0" style="stop-color:#d38d00;stop-opacity:1"/><stop offset="0.18" style="stop-color:#ffe180;stop-opacity:1"/><stop offset="0.36" style="stop-color:#c27900;stop-opacity:1"/><stop offset="0.48" style="stop-color:#fcc81f;stop-opacity:1"/><stop offset="0.63" style="stop-color:#ffd68a;stop-opacity:1"/><stop offset="0.72" style="stop-color:#ffecb1;stop-opacity:1"/><stop offset="0.74" style="stop-color:#fbe29a;stop-opacity:1"/><stop offset="1" style="stop-color:#e09d03;stop-opacity:1"/></linearGradient><linearGradient id="_Linear7" x1="0" y1="0" x2="1" y2="0" gradientUnits="userSpaceOnUse" gradientTransform="matrix(58.6346,46.1794,-46.1794,58.6346,36.8639,45.3077)"><stop offset="0" style="stop-color:#a3a3a4;stop-opacity:1"/><stop offset="0.01" style="stop-color:#a3a3a4;stop-opacity:1"/><stop offset="0.19" style="stop-color:#fff;stop-opacity:1"/><stop offset="0.42" style="stop-color:#bababb;stop-opacity:1"/><stop offset="0.58" style="stop-color:#939495;stop-opacity:1"/><stop offset="0.68" style="stop-color:#767778;stop-opacity:1"/><stop offset="0.97" style="stop-color:#b5b5b6;stop-opacity:1"/><stop offset="1" style="stop-color:#b5b5b6;stop-opacity:1"/></linearGradient><linearGradient id="_Linear28" x1="0" y1="0" x2="1" y2="0" gradientUnits="userSpaceOnUse" gradientTransform="matrix(37.1988,37.1988,-37.1988,37.1988,43.6587,50.2915)"><stop offset="0" style="stop-color:#efb71d;stop-opacity:1"/><stop offset="0.01" style="stop-color:#efb71d;stop-opacity:1"/><stop offset="0.28" style="stop-color:#ffecb1;stop-opacity:1"/><stop offset="0.45" style="stop-color:#ffd68a;stop-opacity:1"/><stop offset="0.56" style="stop-color:#ffe180;stop-opacity:1"/><stop offset="0.82" style="stop-color:#ce8d19;stop-opacity:1"/><stop offset="0.97" style="stop-color:#fcc81f;stop-opacity:1"/><stop offset="1" style="stop-color:#fcc81f;stop-opacity:1"/></linearGradient></defs></svg>